<?xml version="1.0" standalone="no"?>
<!DOCTYPE svg PUBLIC "-//W3C//DTD SVG 20010904//EN"
 "http://www.w3.org/TR/2001/REC-SVG-20010904/DTD/svg10.dtd">
<svg version="1.0" xmlns="http://www.w3.org/2000/svg"
 width="200.000000pt" height="200.000000pt" viewBox="0 0 200.000000 200.000000"
 preserveAspectRatio="xMidYMid meet">

<g transform="translate(0.000000,200.000000) scale(0.100000,-0.100000)"
fill="#000000" stroke="none">
<path d="M960 1482 l0 -72 -100 0 -100 0 0 -168 0 -168 70 -69 70 -69 0 172 0
172 100 0 100 0 0 -103 0 -103 70 -69 70 -69 0 169 0 170 -140 140 -140 140 0
-73z"/>
<path d="M790 845 c0 -78 2 -85 20 -85 17 0 20 7 20 45 0 33 4 45 15 45 11 0
15 -12 15 -45 0 -41 2 -45 25 -45 23 0 25 4 25 45 0 53 -28 90 -61 80 -15 -5
-19 -2 -19 19 0 19 -5 26 -20 26 -18 0 -20 -7 -20 -85z"/>
<path d="M48 909 c-31 -18 -22 -57 18 -81 38 -22 32 -39 -12 -30 -19 3 -24 0
-24 -17 0 -18 6 -21 43 -21 48 0 67 13 67 45 0 23 -21 46 -55 61 -17 7 -13 9
18 12 29 2 37 7 35 20 -4 20 -63 28 -90 11z"/>
<path d="M210 840 c0 -79 0 -80 25 -80 22 0 25 5 25 33 l0 32 21 -32 c14 -22
29 -33 45 -33 31 0 30 4 -5 49 l-29 36 30 35 c28 34 28 35 7 38 -15 3 -30 -6
-45 -25 l-23 -28 -1 28 c0 22 -4 27 -25 27 -25 0 -25 -1 -25 -80z"/>
<path d="M410 904 c0 -9 9 -18 20 -21 17 -5 20 -14 20 -64 0 -52 2 -59 20 -59
18 0 20 7 20 60 0 53 2 60 20 60 13 0 20 7 20 20 0 18 -7 20 -60 20 -48 0 -60
-3 -60 -16z"/>
<path d="M972 908 c3 -7 15 -44 28 -81 20 -63 24 -68 48 -65 22 3 29 13 49 72
28 84 28 86 4 86 -14 0 -24 -13 -37 -52 l-17 -53 -17 50 c-13 38 -22 51 -40
53 -16 3 -21 0 -18 -10z"/>
<path d="M1420 900 c0 -11 -4 -20 -10 -20 -5 0 -10 -7 -10 -15 0 -8 5 -15 10
-15 6 0 10 -20 10 -45 0 -38 3 -45 20 -45 17 0 20 7 20 45 0 25 5 45 10 45 6
0 10 7 10 15 0 8 -4 15 -10 15 -5 0 -10 9 -10 20 0 13 -7 20 -20 20 -13 0 -20
-7 -20 -20z"/>
<path d="M570 883 c-68 -24 -44 -126 30 -126 37 0 38 0 46 50 5 34 2 45 -15
62 -21 21 -33 24 -61 14z m40 -43 c0 -5 -7 -10 -15 -10 -8 0 -15 5 -15 10 0 6
7 10 15 10 8 0 15 -4 15 -10z m13 -47 c-7 -2 -21 -2 -30 0 -10 3 -4 5 12 5 17
0 24 -2 18 -5z"/>
<path d="M1145 865 c-14 -13 -25 -31 -25 -40 0 -47 50 -82 93 -66 20 8 24 17
25 55 2 36 -2 48 -20 60 -31 22 -45 20 -73 -9z m55 -25 c0 -5 -7 -10 -15 -10
-8 0 -15 5 -15 10 0 6 7 10 15 10 8 0 15 -4 15 -10z m13 -47 c-7 -2 -21 -2
-30 0 -10 3 -4 5 12 5 17 0 24 -2 18 -5z"/>
<path d="M1298 882 l-38 -3 0 -60 c0 -56 1 -59 25 -59 23 0 25 4 25 45 0 33 4
45 15 45 11 0 15 -12 15 -45 0 -39 3 -45 20 -45 19 0 21 5 18 56 -3 64 -13 72
-80 66z"/>
<path d="M1755 865 c-30 -29 -32 -55 -6 -86 14 -17 28 -23 55 -22 21 1 40 3
42 6 3 2 6 24 7 47 1 33 -4 46 -22 61 -31 25 -47 24 -76 -6z m55 -25 c0 -5 -7
-10 -15 -10 -8 0 -15 5 -15 10 0 6 7 10 15 10 8 0 15 -4 15 -10z m18 -47 c-10
-2 -26 -2 -35 0 -10 3 -2 5 17 5 19 0 27 -2 18 -5z"/>
<path d="M1900 877 c-37 -19 -37 -43 2 -67 l33 -20 -32 0 c-40 0 -45 -25 -7
-34 33 -9 74 17 74 45 0 13 -11 25 -32 34 l-33 14 33 1 c22 0 32 5 32 15 0 8
-4 15 -9 15 -5 0 -15 2 -23 5 -7 3 -24 -1 -38 -8z"/>
<path d="M680 864 c-20 -23 -16 -75 5 -90 28 -21 75 -18 75 4 0 13 -7 18 -22
18 -18 -1 -23 5 -23 24 0 18 6 26 23 28 12 2 22 10 22 18 0 20 -64 19 -80 -2z"/>
<path d="M1500 831 c0 -61 19 -79 79 -73 l41 4 0 59 c0 52 -2 59 -19 59 -16 0
-20 -8 -23 -42 -2 -30 -8 -43 -18 -43 -10 0 -16 13 -18 43 -3 34 -7 42 -23 42
-16 0 -19 -7 -19 -49z"/>
<path d="M1640 820 c0 -57 1 -60 25 -60 23 0 25 4 25 40 0 27 5 43 15 46 32
13 16 34 -25 34 l-40 0 0 -60z"/>
<path d="M463 643 c-21 -8 -15 -43 6 -43 11 0 23 5 27 11 8 14 -17 38 -33 32z
m17 -23 c0 -5 -4 -10 -10 -10 -5 0 -10 5 -10 10 0 6 5 10 10 10 6 0 10 -4 10
-10z"/>
<path d="M793 643 c-20 -7 -16 -43 5 -43 14 0 15 2 2 10 -13 9 -13 11 0 19 16
11 11 21 -7 14z"/>
<path d="M937 643 c-15 -14 -7 -43 12 -43 26 0 36 17 21 35 -14 16 -23 19 -33
8z m23 -23 c0 -5 -4 -10 -10 -10 -5 0 -10 5 -10 10 0 6 5 10 10 10 6 0 10 -4
10 -10z"/>
<path d="M400 631 c0 -3 4 -12 9 -19 6 -11 9 -9 13 5 3 12 0 20 -8 20 -8 0
-14 -3 -14 -6z"/>
<path d="M521 622 c-1 -17 4 -23 16 -20 19 4 31 38 14 38 -6 0 -11 -8 -12 -17
0 -15 -2 -15 -9 2 -8 19 -9 19 -9 -3z"/>
<path d="M580 620 c0 -13 7 -20 18 -20 11 0 18 8 19 20 1 14 -4 20 -18 20 -12
0 -19 -7 -19 -20z"/>
<path d="M677 620 c3 -11 7 -20 8 -20 1 0 5 9 8 20 3 12 0 20 -8 20 -8 0 -11
-8 -8 -20z"/>
<path d="M720 620 c0 -14 6 -20 23 -19 12 0 17 3 10 5 -7 3 -9 12 -6 20 3 8
-1 14 -11 14 -9 0 -16 -8 -16 -20z"/>
<path d="M830 619 c0 -21 16 -26 23 -6 4 10 6 10 6 0 1 -21 21 -15 21 6 0 13
-7 19 -25 19 -18 0 -25 -6 -25 -19z"/>
<path d="M1001 622 c-1 -17 4 -23 16 -20 19 4 31 38 14 38 -6 0 -11 -8 -12
-17 0 -15 -2 -15 -9 2 -8 19 -9 19 -9 -3z"/>
<path d="M1060 623 c0 -11 8 -19 19 -20 13 -1 18 4 17 15 -4 24 -36 28 -36 5z"/>
<path d="M1150 620 c0 -11 6 -20 13 -20 7 0 13 9 14 20 1 11 -4 20 -13 20 -8
0 -14 -9 -14 -20z"/>
<path d="M1207 621 c-3 -14 0 -19 13 -18 11 1 18 8 17 19 -2 24 -23 23 -30 -1z"/>
<path d="M1260 620 c0 -23 10 -26 28 -8 18 18 15 28 -8 28 -13 0 -20 -7 -20
-20z"/>
<path d="M1320 620 c0 -11 6 -20 13 -20 7 0 13 9 14 20 1 11 -4 20 -13 20 -8
0 -14 -9 -14 -20z"/>
<path d="M1370 621 c0 -14 6 -19 20 -18 12 1 20 8 20 19 0 11 -7 18 -20 18
-13 0 -20 -7 -20 -19z"/>
<path d="M1440 620 c0 -11 5 -20 10 -20 6 0 10 9 10 20 0 11 -4 20 -10 20 -5
0 -10 -9 -10 -20z"/>
<path d="M1492 620 c0 -14 2 -19 5 -12 2 6 2 18 0 25 -3 6 -5 1 -5 -13z"/>
<path d="M1533 626 c3 -8 1 -17 -6 -20 -7 -2 -2 -5 11 -5 12 -1 22 1 22 3 0
14 -14 36 -22 36 -6 0 -8 -6 -5 -14z"/>
<path d="M1580 620 c0 -12 7 -20 18 -20 14 0 15 2 2 10 -11 7 -11 10 -2 10 7
0 10 5 7 10 -10 17 -25 11 -25 -10z"/>
</g>
</svg>
