<?xml version="1.0" standalone="yes"?>
<svg xmlns="http://www.w3.org/2000/svg" width="495" height="227">
<path style="fill:#2d2346; stroke:none;" d="M0 0L0 227L495 227L495 0L0 0z"/>
<path style="fill:#8853e3; stroke:none;" d="M228 7L227 10L231 10L228 7z"/>
<path style="fill:#6f20ce; stroke:none;" d="M229 7L230 8L229 7z"/>
<path style="fill:#9287ae; stroke:none;" d="M228 9L223 20L235 20L230 9L228 9z"/>
<path style="fill:#8853e3; stroke:none;" d="M226 11L227 12L226 11M231 11L232 12L231 11M225 14L226 15L225 14M232 14L233 15L232 14M224.333 15.6667L224.667 16.3333L224.333 15.6667M233 15L234 16L233 15z"/>
<path style="fill:#6f20ce; stroke:none;" d="M223 17L224 18L223 17z"/>
<path style="fill:#8853e3; stroke:none;" d="M234 17L235 18L234 17M214 40C218.482 40 228.833 38.6667 228 42L242 39L240 41L226 50L226 51L263 30L263 29L243 36C240.383 28.6865 233.458 12.8464 222.724 21.0278C218.421 24.3077 215.541 34.9374 214 40z"/>
<path style="fill:#6f20ce; stroke:none;" d="M236 21L237 22L236 21M220 25L221 26L220 25M219 26L220 27L219 26z"/>
<path style="fill:#8853e3; stroke:none;" d="M264 28L264 29L268 28L264 28z"/>
<path style="fill:#6f20ce; stroke:none;" d="M263 29L264 30L263 29M257 30L258 31L257 30M217 31L218 32L217 31M241 32L242 33L241 32M251 32L252 33L251 32M258 32L259 33L258 32M216 33L217 34L216 33M253 35L254 36L253 35z"/>
<path style="fill:#9287ae; stroke:none;" d="M172 62L172 63L197 75L207 68L207 66L203 65L227.561 49.6103L240 41L240 38L242 39C238.609 35.4962 228.201 41.7294 224 43.169C207.017 48.9885 189.689 58.8585 172 62z"/>
<path style="fill:#6f20ce; stroke:none;" d="M249 37L250 38L249 37M214 38L215 39L214 38M210 48L229 41C220.823 37.569 212.737 39.5774 210 48M244 40L245 41L244 40z"/>
<path style="fill:#8853e3; stroke:none;" d="M226 42L227 43L226 42M222 43L223 44L222 43z"/>
<path style="fill:#6f20ce; stroke:none;" d="M239 43L240 44L239 43z"/>
<path style="fill:#8853e3; stroke:none;" d="M220 44L221 45L220 44M245 85C248.174 81.4551 254.932 78.3589 256.393 73.6991C258.605 66.6399 249.675 50.7578 247 44C242.949 45.5447 234.365 48.6126 232.118 52.4954C230.497 55.2966 232.683 59.3548 233.703 62C236.436 69.0875 237.863 81.2573 245 85M216.667 45.3333L217.333 45.6667L216.667 45.3333M212.667 47.3333L213.333 47.6667L212.667 47.3333z"/>
<path style="fill:#6f20ce; stroke:none;" d="M240 47L241 48L240 47z"/>
<path style="fill:#8853e3; stroke:none;" d="M209 48L210 49L209 48z"/>
<path style="fill:#6f20ce; stroke:none;" d="M230 48L231 49L230 48z"/>
<path style="fill:#8853e3; stroke:none;" d="M207 49L208 50L207 49z"/>
<path style="fill:#6f20ce; stroke:none;" d="M204 50L205 51L204 50z"/>
<path style="fill:#8853e3; stroke:none;" d="M205 50L206 51L205 50M201 51L202 52L201 51M224 51L225 52L224 51z"/>
<path style="fill:#6f20ce; stroke:none;" d="M225 51L226 52L225 51M198 52L199 53L198 52z"/>
<path style="fill:#8853e3; stroke:none;" d="M199 52L200 53L199 52M223 52L224 53L223 52M197 53L198 54L197 53M222 53L223 54L222 53z"/>
<path style="fill:#6f20ce; stroke:none;" d="M250 53L251 54L250 53z"/>
<path style="fill:#8853e3; stroke:none;" d="M193 54L194 55L193 54M219.667 54.3333L220.333 54.6667L219.667 54.3333M191 55L192 56L191 55M218 55L219 56L218 55M187 56L188 57L187 56M215 56L216 57L215 56z"/>
<path style="fill:#6f20ce; stroke:none;" d="M216 56L217 57L216 56z"/>
<path style="fill:#8853e3; stroke:none;" d="M185 57L186 58L185 57M183 58L184 59L183 58M213 58L214 59L213 58M179 59L180 60L179 59M210.667 59.3333L211.333 59.6667L210.667 59.3333M177 60L178 61L177 60M175 61L176 62L175 61M208 61L209 62L208 61z"/>
<path style="fill:#6f20ce; stroke:none;" d="M253 61L254 62L253 61z"/>
<path style="fill:#8853e3; stroke:none;" d="M171 62L172 63L171 62M205.667 62.3333L206.333 62.6667L205.667 62.3333M173 63L174 64L173 63M204 63L205 64L204 63M174.667 64.3333L175.333 64.6667L174.667 64.3333M203 64L204 65L203 64M177.667 65.3333L178.333 65.6667L177.667 65.3333M205 65L206 66L205 65z"/>
<path style="fill:#6f20ce; stroke:none;" d="M254 65L255 66L254 65z"/>
<path style="fill:#8853e3; stroke:none;" d="M179 66L180 67L179 66z"/>
<path style="fill:#6f20ce; stroke:none;" d="M180 67L181 68L180 67z"/>
<path style="fill:#8853e3; stroke:none;" d="M181 67L182 68L181 67M197 76L236 93L241 88C228.664 80.9682 208.385 57.9001 197 76z"/>
<path style="fill:#6f20ce; stroke:none;" d="M208 67L209 68L208 67M235 67L236 68L235 67z"/>
<path style="fill:#8853e3; stroke:none;" d="M184 68L185 69L184 68M185 69L186 70L185 69M188 70L189 71L188 70M191 72L192 73L191 72M194.667 73.3333L195.333 73.6667L194.667 73.3333z"/>
<path style="fill:#6f20ce; stroke:none;" d="M218 73L219 74L218 73M257 73C253.407 77.5477 247.8 82.8851 242 84L243 89C235.437 89.011 236.287 94.0079 242.005 96.9159C251.34 101.664 261.079 106.623 271 110L257 73z"/>
<path style="fill:#8853e3; stroke:none;" d="M196 74L197 75L196 74z"/>
<path style="fill:#6f20ce; stroke:none;" d="M238 75L239 76L238 75M200 76L201 77L200 76M239 77L240 78L239 77z"/>
<path style="fill:#8853e3; stroke:none;" d="M195 80L188 99C196.677 101.75 207.576 97.4488 212 89L195 80z"/>
<path style="fill:#6f20ce; stroke:none;" d="M231 81L232 82L231 81M212 82L213 83L212 82M214 83L215 84L214 83M233 83L234 84L233 83M241 83L242 84L241 83M235 84L236 85L235 84M237 86L238 87L237 86M223 87L224 88L223 87M210 88L211 89L210 88M225 88L226 89L225 88M226 89L227 90L226 89M229 90L230 91L229 90M231 91L232 92L231 91M232.667 92.3333L233.333 92.6667L232.667 92.3333M207 93L208 94L207 93M203 96L204 97L203 96M188 97L189 98L188 97M200 98L201 99L200 98M187 99L185 109L196 101L187 99M198 99L199 100L198 99z"/>
<path style="fill:#8853e3; stroke:none;" d="M187 100L188 101L187 100z"/>
<path style="fill:#6f20ce; stroke:none;" d="M184 109L185 110L184 109z"/>
<path style="fill:#9287ae; stroke:none;" d="M199 123L199 162L200 162C200 150.828 203.311 133.274 199 123z"/>
<path style="fill:#d7caf2; stroke:none;" d="M200 123L200 162L207 162C207 157.052 204.846 145.322 208.603 141.604C218.533 131.777 218 158.41 218 162L226 162C226 146.213 228.164 129.524 207 135L207 123L200 123z"/>
<path style="fill:#9287ae; stroke:none;" d="M207 123L209 135L207 123z"/>
<path style="fill:#8853e3; stroke:none;" d="M21 124L22 125L21 124z"/>
<path style="fill:#9287ae; stroke:none;" d="M22 124L23 125L22 124z"/>
<path style="fill:#d7caf2; stroke:none;" d="M13 152C13.05 166.104 35.568 165.739 38.5108 152.999C40.1216 146.026 34.8937 141.928 29 139.989C26.677 139.225 21.201 137.553 22.3457 134.055C24.3147 128.037 33.4703 132.915 37 134L37 126C33.7127 125.322 30.3739 124.214 27 124.13C17.7628 123.903 6.34702 134.023 15.3441 142.582C18.6395 145.717 26.7451 146.103 28.6728 150.287C32.7247 159.081 15.3869 152.975 13 152z"/>
<path style="fill:#9287ae; stroke:none;" d="M30.6667 124.333L31.3333 124.667L30.6667 124.333z"/>
<path style="fill:#8853e3; stroke:none;" d="M19 125L20 126L19 125z"/>
<path style="fill:#9287ae; stroke:none;" d="M34 125L35 126L34 125M60 125L60 162L61 162C61 151.351 64.1113 134.798 60 125z"/>
<path style="fill:#d7caf2; stroke:none;" d="M61 125L61 162L69 162C69 156.419 68.4097 151.823 73 148C77.2458 158.044 82.4685 162 93 162L79.5694 139.666L91 125C77.9153 125.001 77.4747 131.991 69 140L69 125L61 125z"/>
<path style="fill:#9287ae; stroke:none;" d="M69 125L69 140L70 140L69 125M80 125L81 126L80 125M91 125L92 126L91 125z"/>
<path style="fill:#8853e3; stroke:none;" d="M110 125C110.245 132.473 114.612 131.999 121 132L121 131L111 131L110 125z"/>
<path style="fill:#d7caf2; stroke:none;" d="M111 125L111 131L121 131L121 162C134.99 161.95 130 141.476 130 131L140 131L140 125L111 125M246 125C248.624 137.736 254.459 161.989 269 162L283 125L273 125L265 151C259.585 139.369 261.149 125.002 246 125M351 126L351 134L347 134L347 140L351 140C351 152.77 349.654 161.998 365 162L365 156C358.152 153.921 360 145.876 360 140L365 140L365 134L360 134L360 126L351 126z"/>
<path style="fill:#8853e3; stroke:none;" d="M15 127L16 128L15 127z"/>
<path style="fill:#9287ae; stroke:none;" d="M78 128L79 129L78 128M246 128L247 129L246 128z"/>
<path style="fill:#8853e3; stroke:none;" d="M272 128L273 129L272 128z"/>
<path style="fill:#9287ae; stroke:none;" d="M87 129L88 130L87 129M247 129L248 130L247 129M281 129L282 130L281 129M13 130L14 131L13 130M76 130L77 131L76 130z"/>
<path style="fill:#8853e3; stroke:none;" d="M247 130L248 131L247 130z"/>
<path style="fill:#9287ae; stroke:none;" d="M257 130L258 131L257 130z"/>
<path style="fill:#8853e3; stroke:none;" d="M271 130L272 131L271 130M12 131L13 132L12 131z"/>
<path style="fill:#9287ae; stroke:none;" d="M31 131L32 132L31 131M85 131L86 132L85 131z"/>
<path style="fill:#8853e3; stroke:none;" d="M130 131L130 132L140 132L130 131z"/>
<path style="fill:#9287ae; stroke:none;" d="M280 131L281 132L280 131M12 132L13 133L12 132z"/>
<path style="fill:#8853e3; stroke:none;" d="M22 132L23 133L22 132M32 132L33 133L32 132z"/>
<path style="fill:#9287ae; stroke:none;" d="M258 132L259 133L258 132M21 133L22 134L21 133M74 133L75 134L74 133M148 133L149 134L148 133z"/>
<path style="fill:#d7caf2; stroke:none;" d="M163 154C156.744 155.982 151.389 156.607 148 150L166 150C165.412 145.353 165.344 139.743 161.772 136.279C150.81 125.649 139.355 138.687 140.044 150C140.803 162.462 162.828 168.439 163 154z"/>
<path style="fill:#8853e3; stroke:none;" d="M157 133L158 134L157 133M180 133L181 134L180 133z"/>
<path style="fill:#9287ae; stroke:none;" d="M181 133L182 134L181 133z"/>
<path style="fill:#d7caf2; stroke:none;" d="M193 154C175.635 157.919 175.214 137.7 193 141L193 134C188.977 133.827 185.009 132.827 181 133.637C169.952 135.87 166.58 153.415 176.105 159.713C183.203 164.406 192.889 163.291 193 154z"/>
<path style="fill:#9287ae; stroke:none;" d="M187.667 133.333L188.333 133.667L187.667 133.333z"/>
<path style="fill:#8853e3; stroke:none;" d="M189 133L190 134L189 133z"/>
<path style="fill:#9287ae; stroke:none;" d="M212.667 133.333L213.333 133.667L212.667 133.333M218 133L219 134L218 133z"/>
<path style="fill:#8853e3; stroke:none;" d="M219 133L220 134L219 133z"/>
<path style="fill:#9287ae; stroke:none;" d="M279 133L280 134L279 133M292 133L293 134L292 133z"/>
<path style="fill:#d7caf2; stroke:none;" d="M307 154C300.403 155.507 295.734 156.803 292 150L310 150C309.84 130.909 284.638 126.484 283.613 147C282.896 161.34 306.815 169.563 307 154z"/>
<path style="fill:#9287ae; stroke:none;" d="M300 133L301 134L300 133z"/>
<path style="fill:#8853e3; stroke:none;" d="M301 133L302 134L301 133M325 133L326 134L325 133z"/>
<path style="fill:#9287ae; stroke:none;" d="M326.667 133.333L327.333 133.667L326.667 133.333z"/>
<path style="fill:#d7caf2; stroke:none;" d="M316 162L323 162C323 157.053 320.846 145.321 324.603 141.604C334.649 131.667 334 158.375 334 162L342 162C342 155.007 343.98 144.366 340.543 138.058C337.232 131.98 321.22 130.897 317.028 136.653C313.349 141.703 316 155.863 316 162z"/>
<path style="fill:#9287ae; stroke:none;" d="M334 133L335 134L334 133z"/>
<path style="fill:#8853e3; stroke:none;" d="M413 133L414 134L413 133z"/>
<path style="fill:#9287ae; stroke:none;" d="M414 133L415 134L414 133z"/>
<path style="fill:#d7caf2; stroke:none;" d="M405 162L413 162L413 140L423 140L423 134C401.986 130.157 405 146.703 405 162z"/>
<path style="fill:#9287ae; stroke:none;" d="M420.667 133.333L421.333 133.667L420.667 133.333z"/>
<path style="fill:#8853e3; stroke:none;" d="M422 133L423 134L422 133z"/>
<path style="fill:#9287ae; stroke:none;" d="M435 133L436 134L435 133z"/>
<path style="fill:#d7caf2; stroke:none;" d="M451 154C444.25 155.143 438.697 157.494 435 150L453 150C452.892 144.923 452.199 138.923 447.867 135.564C438.583 128.365 426.52 136.356 426.134 147C425.609 161.485 450.492 169.528 451 154z"/>
<path style="fill:#9287ae; stroke:none;" d="M443.667 133.333L444.333 133.667L443.667 133.333z"/>
<path style="fill:#8853e3; stroke:none;" d="M466 133L467 134L466 133z"/>
<path style="fill:#9287ae; stroke:none;" d="M467 133L467 134L473 134L467 133M145 134L146 135L145 134M160 134L161 135L160 134M176 134L177 135L176 134z"/>
<path style="fill:#8853e3; stroke:none;" d="M193 134L194 135L193 134z"/>
<path style="fill:#9287ae; stroke:none;" d="M222 134L223 135L222 134M259 134L260 135L259 134M289 134L290 135L289 134z"/>
<path style="fill:#8853e3; stroke:none;" d="M304 134L305 135L304 134M318 134L319 135L318 134z"/>
<path style="fill:#9287ae; stroke:none;" d="M319 134L320 135L319 134M365 134L365 140L366 140L365 134z"/>
<path style="fill:#d7caf2; stroke:none;" d="M372 134C372 140.973 370.213 151.498 374.164 157.671C378.449 164.364 392.548 163.64 396.276 156.815C399.706 150.536 398 140.926 398 134L390 134C390 138.781 392.37 152.404 386.853 154.673C377.9 158.355 380 138.116 380 134L372 134z"/>
<path style="fill:#9287ae; stroke:none;" d="M409 134L410 135L409 134M423 134L423 140L424 140L423 134M447 134L448 135L447 134z"/>
<path style="fill:#d7caf2; stroke:none;" d="M471 156L458 154C458.633 173.337 490.631 155.294 474.941 146.299C472.267 144.766 468.924 143.937 466 143L466 140L478 141C477.623 129.67 457.405 131.865 458.333 143.001C458.968 150.62 467.968 150.222 471 156z"/>
<path style="fill:#9287ae; stroke:none;" d="M476 134L477 135L476 134z"/>
<path style="fill:#8853e3; stroke:none;" d="M21 135L22 136L21 135M82 135L83 136L82 135z"/>
<path style="fill:#9287ae; stroke:none;" d="M144 135L145 136L144 135M161 135L162 136L161 135M193 135L193 142L194 142L193 135M249 135L250 136L249 135M270 135L271 136L270 135z"/>
<path style="fill:#8853e3; stroke:none;" d="M305 135L306 136L305 135z"/>
<path style="fill:#9287ae; stroke:none;" d="M317 135L318 136L317 135M339 135L340 136L339 135M431 135L432 136L431 135M461 135L462 136L461 135M478 135L477 142L478 135M21 136L22 137L21 136M72 136L73 137L72 136M223 136L224 137L223 136z"/>
<path style="fill:#8853e3; stroke:none;" d="M249 136L250 137L249 136M306 136L307 137L306 136z"/>
<path style="fill:#9287ae; stroke:none;" d="M315 136L315 162L316 162L315 136z"/>
<path style="fill:#8853e3; stroke:none;" d="M405 136L406 137L405 136z"/>
<path style="fill:#9287ae; stroke:none;" d="M430 136L431 137L430 136M80 137L81 138L80 137M142 137L143 138L142 137z"/>
<path style="fill:#8853e3; stroke:none;" d="M163 137L164 138L163 137z"/>
<path style="fill:#9287ae; stroke:none;" d="M250 137L251 138L250 137M269 137L270 138L269 137z"/>
<path style="fill:#8853e3; stroke:none;" d="M278 137L279 138L278 137z"/>
<path style="fill:#9287ae; stroke:none;" d="M340 137L341 138L340 137M450 137L451 138L450 137M459 137L460 138L459 137M24 138L25 139L24 138M79 138L80 139L79 138z"/>
<path style="fill:#8853e3; stroke:none;" d="M141 138L142 139L141 138z"/>
<path style="fill:#9287ae; stroke:none;" d="M285 138L286 139L285 138M307 138L308 139L307 138M12 139L13 140L12 139M26 139L27 140L26 139z"/>
<path style="fill:#8853e3; stroke:none;" d="M70 139L71 140L70 139z"/>
<path style="fill:#9287ae; stroke:none;" d="M151 139L152 140L151 139z"/>
<path style="fill:#8853e3; stroke:none;" d="M152.667 139.333L153.333 139.667L152.667 139.333z"/>
<path style="fill:#9287ae; stroke:none;" d="M154 139L155 140L154 139z"/>
<path style="fill:#8853e3; stroke:none;" d="M164 139L165 140L164 139z"/>
<path style="fill:#9287ae; stroke:none;" d="M172 139L173 140L172 139M225 139L226 140L225 139M260 139L261 140L260 139M277 139L278 140L277 139M295 139L296 140L295 139z"/>
<path style="fill:#8853e3; stroke:none;" d="M296.667 139.333L297.333 139.667L296.667 139.333z"/>
<path style="fill:#9287ae; stroke:none;" d="M298 139L299 140L298 139M341 139L342 140L341 139M428 139L429 140L428 139M438 139L439 140L438 139z"/>
<path style="fill:#8853e3; stroke:none;" d="M439 139L440 140L439 139z"/>
<path style="fill:#9287ae; stroke:none;" d="M440.667 139.333L441.333 139.667L440.667 139.333z"/>
<path style="fill:#8853e3; stroke:none;" d="M458 139L459 140L458 139z"/>
<path style="fill:#9287ae; stroke:none;" d="M468 139L468 140L473 140L468 139M13 140L14 141L13 140M31 140L32 141L31 140M78 140L79 141L78 140z"/>
<path style="fill:#2d2346; stroke:none;" d="M148 144L157 144L157 140C152.774 140.015 149.722 139.716 148 144z"/>
<path style="fill:#9287ae; stroke:none;" d="M171 140L172 141L171 140M190 140L191 141L190 140M208 140L209 141L208 140M215 140L216 141L215 140M276 140L277 141L276 140z"/>
<path style="fill:#2d2346; stroke:none;" d="M293 140L292 144L301 144C299.657 139.954 296.935 140.047 293 140z"/>
<path style="fill:#8853e3; stroke:none;" d="M300 140L301 141L300 140M324 140L325 141L324 140M413 140L413 162L414 162L413 140z"/>
<path style="fill:#9287ae; stroke:none;" d="M427 140L428 141L427 140M436 140L435 142L436 140z"/>
<path style="fill:#2d2346; stroke:none;" d="M435 144L445 144C442.191 139.422 437.675 139.15 435 144z"/>
<path style="fill:#9287ae; stroke:none;" d="M443 140L444 141L443 140M451 140L452 141L451 140M466 140L466 143L467 143L466 140z"/>
<path style="fill:#8853e3; stroke:none;" d="M33 141L34 142L33 141z"/>
<path style="fill:#9287ae; stroke:none;" d="M148 141L149 142L148 141M180 141L181 142L180 141M207 141L207 162L208 162L207 141z"/>
<path style="fill:#8853e3; stroke:none;" d="M216 141L217 142L216 141z"/>
<path style="fill:#9287ae; stroke:none;" d="M251 141L252 142L251 141M261 141L262 142L261 141z"/>
<path style="fill:#8853e3; stroke:none;" d="M276 141L277 142L276 141z"/>
<path style="fill:#9287ae; stroke:none;" d="M284 141L285 142L284 141M323 141L323 162L324 162L323 141z"/>
<path style="fill:#8853e3; stroke:none;" d="M332 141L333 142L332 141z"/>
<path style="fill:#9287ae; stroke:none;" d="M14 142L15 143L14 142M179 142L180 143L179 142z"/>
<path style="fill:#8853e3; stroke:none;" d="M251 142L252 143L251 142z"/>
<path style="fill:#9287ae; stroke:none;" d="M292 142L293 143L292 142M309 142L310 143L309 142M333 142L334 143L333 142M444 142L445 143L444 142M15 143L16 144L15 143M36 143L37 144L36 143M80 143L81 144L80 143z"/>
<path style="fill:#8853e3; stroke:none;" d="M157 143L148 144L148 145L158 144L157 143z"/>
<path style="fill:#9287ae; stroke:none;" d="M252 143L253 144L252 143z"/>
<path style="fill:#8853e3; stroke:none;" d="M283 143L284 144L283 143z"/>
<path style="fill:#9287ae; stroke:none;" d="M301.333 143.667L301.667 144.333L301.333 143.667M426 143L427 144L426 143M452 143L453 144L452 143M17 144L18 145L17 144M157 144L158 145L157 144M165 144L165 147L166 147L165 144M267 144L268 145L267 144M283 144L283 147L284 147L283 144M291 144L292 145L291 144z"/>
<path style="fill:#8853e3; stroke:none;" d="M292 144L292 145L301 145L292 144M435 144L435 145L445 145L435 144z"/>
<path style="fill:#9287ae; stroke:none;" d="M469 144L470 145L469 144M20 145L21 146L20 145z"/>
<path style="fill:#8853e3; stroke:none;" d="M139 145L140 146L139 145z"/>
<path style="fill:#9287ae; stroke:none;" d="M253 145L254 146L253 145M262 145L263 146L262 145M458 145L459 146L458 145M473 145L474 146L473 145z"/>
<path style="fill:#8853e3; stroke:none;" d="M474 145L475 146L474 145z"/>
<path style="fill:#9287ae; stroke:none;" d="M22 146L23 147L22 146z"/>
<path style="fill:#8853e3; stroke:none;" d="M38 146L39 147L38 146M82 146L83 147L82 146z"/>
<path style="fill:#9287ae; stroke:none;" d="M139 146L139 149L140 149L139 146z"/>
<path style="fill:#8853e3; stroke:none;" d="M170 146L170 149L171 149L170 146z"/>
<path style="fill:#9287ae; stroke:none;" d="M266 146L267 147L266 146M274 146L275 147L274 146z"/>
<path style="fill:#8853e3; stroke:none;" d="M23 147L24 148L23 147z"/>
<path style="fill:#9287ae; stroke:none;" d="M24 147L25 148L24 147M38 147L39 148L38 147M459 147L460 148L459 147M28 148L29 149L28 148M84 148L85 149L84 148M265 148L266 149L265 148M273 148L274 149L273 148M460 148L461 149L460 148M478 148L479 149L478 148M70 149L71 150L70 149z"/>
<path style="fill:#8853e3; stroke:none;" d="M139 149L140 150L139 149z"/>
<path style="fill:#9287ae; stroke:none;" d="M254 149L255 150L254 149M283.333 149.667L283.667 150.333L283.333 149.667M461 149L462 150L461 149M29 150L30 151L29 150M69 150L69 162L70 162L69 150M264 150L265 151L264 150M462 150L463 151L462 150z"/>
<path style="fill:#8853e3; stroke:none;" d="M12 151L13 152L12 151z"/>
<path style="fill:#9287ae; stroke:none;" d="M13 151L14 152L13 151z"/>
<path style="fill:#8853e3; stroke:none;" d="M29 151L30 152L29 151M86 151L87 152L86 151z"/>
<path style="fill:#9287ae; stroke:none;" d="M255 151L256 152L255 151z"/>
<path style="fill:#8853e3; stroke:none;" d="M283 151L284 152L283 151z"/>
<path style="fill:#9287ae; stroke:none;" d="M292 151L293 152L292 151M380.333 151.667L380.667 152.333L380.333 151.667M426.333 151.667L426.667 152.333L426.333 151.667M12 152L12 159L13 159L12 152M29.3333 152.667L29.6667 153.333L29.3333 152.667M179 152L180 153L179 152M272 152L273 153L272 152M372.333 152.667L372.667 153.333L372.333 152.667M435 152L436 153L435 152M15 153L16 154L15 153M256 153L257 154L256 153M284 153L285 154L284 153M18.6667 154.333L19.3333 154.667L18.6667 154.333z"/>
<path style="fill:#8853e3; stroke:none;" d="M20 154L21 155L20 154M28 154L29 155L28 154z"/>
<path style="fill:#9287ae; stroke:none;" d="M140 154L141 155L140 154z"/>
<path style="fill:#8853e3; stroke:none;" d="M160 154L161 155L160 154z"/>
<path style="fill:#9287ae; stroke:none;" d="M161 154L162 155L161 154M163 154L163 160L164 160L163 154M171 154L172 155L171 154M190 154L191 155L190 154M193 154L193 160L194 160L193 154z"/>
<path style="fill:#8853e3; stroke:none;" d="M271 154L272 155L271 154z"/>
<path style="fill:#9287ae; stroke:none;" d="M294 154L295 155L294 154M304 154L305 155L304 154z"/>
<path style="fill:#8853e3; stroke:none;" d="M307 154L307 160L308 160L307 154z"/>
<path style="fill:#9287ae; stroke:none;" d="M388 154L389 155L388 154M397 154L398 155L397 154z"/>
<path style="fill:#8853e3; stroke:none;" d="M427 154L428 155L427 154z"/>
<path style="fill:#9287ae; stroke:none;" d="M437 154L438 155L437 154z"/>
<path style="fill:#8853e3; stroke:none;" d="M460 154L461 155L460 154z"/>
<path style="fill:#9287ae; stroke:none;" d="M22 155L23 156L22 155z"/>
<path style="fill:#8853e3; stroke:none;" d="M23 155L23 156L26 156L23 155z"/>
<path style="fill:#9287ae; stroke:none;" d="M26 155L27 156L26 155M37 155L38 156L37 155z"/>
<path style="fill:#8853e3; stroke:none;" d="M77 155L78 156L77 155M140 155L141 156L140 155z"/>
<path style="fill:#9287ae; stroke:none;" d="M152 155L153 156L152 155z"/>
<path style="fill:#8853e3; stroke:none;" d="M153 155L153 156L157 156L153 155z"/>
<path style="fill:#9287ae; stroke:none;" d="M157.667 155.333L158.333 155.667L157.667 155.333M184 155L184 156L188 156L184 155M296 155L297 156L296 155z"/>
<path style="fill:#8853e3; stroke:none;" d="M297 155L297 156L300 156L297 155z"/>
<path style="fill:#9287ae; stroke:none;" d="M300.667 155.333L301.333 155.667L300.667 155.333z"/>
<path style="fill:#8853e3; stroke:none;" d="M363 155L364 156L363 155z"/>
<path style="fill:#9287ae; stroke:none;" d="M364 155L365 162L366 162L364 155M383.667 155.333L384.333 155.667L383.667 155.333z"/>
<path style="fill:#8853e3; stroke:none;" d="M385 155L386 156L385 155z"/>
<path style="fill:#9287ae; stroke:none;" d="M386 155L387 156L386 155z"/>
<path style="fill:#8853e3; stroke:none;" d="M397 155L398 156L397 155z"/>
<path style="fill:#9287ae; stroke:none;" d="M439 155L440 156L439 155z"/>
<path style="fill:#8853e3; stroke:none;" d="M440 155L440 156L443 156L440 155z"/>
<path style="fill:#9287ae; stroke:none;" d="M443 155L443 156L446 156L443 155M129 156L130 157L129 156z"/>
<path style="fill:#8853e3; stroke:none;" d="M285 156L286 157L285 156z"/>
<path style="fill:#9287ae; stroke:none;" d="M396 156L397 157L396 156M257 157L258 158L257 157M270 157L271 158L270 157M286 157L287 158L286 157M351 157L352 158L351 157M373 157L374 158L373 157M478 157L479 158L478 157M79 158L80 159L79 158M90 158L91 159L90 158z"/>
<path style="fill:#8853e3; stroke:none;" d="M270 158L271 159L270 158M258 159L259 160L258 159z"/>
<path style="fill:#9287ae; stroke:none;" d="M269 159L270 160L269 159z"/>
<path style="fill:#8853e3; stroke:none;" d="M288 159L289 160L288 159z"/>
<path style="fill:#9287ae; stroke:none;" d="M394 159L395 160L394 159z"/>
<path style="fill:#8853e3; stroke:none;" d="M14 160L15 161L14 160z"/>
<path style="fill:#9287ae; stroke:none;" d="M33 160L34 161L33 160M81 160L82 161L81 160M92 160L93 161L92 160M129.333 160.667L129.667 161.333L129.333 160.667z"/>
<path style="fill:#8853e3; stroke:none;" d="M163 160L164 161L163 160M176 160L177 161L176 160z"/>
<path style="fill:#9287ae; stroke:none;" d="M177 160L178 161L177 160z"/>
<path style="fill:#8853e3; stroke:none;" d="M432 160L433 161L432 160z"/>
<path style="fill:#9287ae; stroke:none;" d="M450 160L451 161L450 160M458 160L459 161L458 160M475 160L476 161L475 160M16.6667 161.333L17.3333 161.667L16.6667 161.333M147 161L148 162L147 161M161 161L162 162L161 161M191 161L192 162L191 161M259 161L260 162L259 161M291 161L292 162L291 161M305 161L306 162L305 161M354 161L355 162L354 161M378 161L379 162L378 161M391 161L392 162L391 161z"/>
<path style="fill:#8853e3; stroke:none;" d="M434 161L435 162L434 161M448 161L449 162L448 161z"/>
<path style="fill:#9287ae; stroke:none;" d="M460 161L461 162L460 161M473 161L474 162L473 161M358 162L358 163L362 163L358 162z"/>
<path style="fill:#8853e3; stroke:none;" d="M362 162L363 163L362 162z"/>
<path style="fill:#9287ae; stroke:none;" d="M82 186L87 201L89 201L94 186L87 193L82 186z"/>
<path style="fill:#8853e3; stroke:none;" d="M99 186L101 188L99 186z"/>
<path style="fill:#9287ae; stroke:none;" d="M100 186L100 187C104.852 188.378 110.895 196.749 102.957 198.994C95.9447 200.977 97.1323 191.064 100 188C94.0242 186.658 94.5466 200.062 101.015 200.833C111.382 202.067 109.874 186.906 100 186M112 186C112 189.577 111.145 194.513 112.603 197.852C114.146 201.386 119.653 201.928 121.821 198.682C124.001 195.418 123 189.738 123 186L122 186C121.992 188.924 120.203 205.26 114.318 197.412C111.965 194.275 113.475 189.516 112 186z"/>
<path style="fill:#8853e3; stroke:none;" d="M121 186L121 195L122 195L121 186M126 186L127 187L126 186z"/>
<path style="fill:#9287ae; stroke:none;" d="M126 201L128 201L128 195L135 198L137 187C125.123 184.796 126 191.025 126 201z"/>
<path style="fill:#8853e3; stroke:none;" d="M134 186L135 187L134 186M145 186L150 188L150 201L151 201C151 194.263 152.432 188.408 145 186z"/>
<path style="fill:#9287ae; stroke:none;" d="M146 186L146 187C152.376 188.936 151 195.437 151 201L152 201L152 187L157 187L146 186z"/>
<path style="fill:#8853e3; stroke:none;" d="M159 186L159 201L160 201L159 186z"/>
<path style="fill:#9287ae; stroke:none;" d="M160 186L160 201L168 201L168 200L161 200L161 194L168 194L168 193L161 193L161 187L168 187L160 186z"/>
<path style="fill:#8853e3; stroke:none;" d="M175 186L176 187L175 186z"/>
<path style="fill:#9287ae; stroke:none;" d="M176 186L176 187L180 187L176 186z"/>
<path style="fill:#8853e3; stroke:none;" d="M180 186L179 188L181 188L180 186z"/>
<path style="fill:#9287ae; stroke:none;" d="M185 186L185 201L187 201L187 194L195 194L195 201L196 201L196 187L195 187L195 193L187 193L187 186L185 186z"/>
<path style="fill:#8853e3; stroke:none;" d="M195 186L196 201L197 201L195 186z"/>
<path style="fill:#9287ae; stroke:none;" d="M215 187C215.531 188.636 216.291 190.335 216.643 192.021C219.622 206.316 196.658 191.926 214 187C205.975 184.148 202.709 197.51 209.228 200.396C217.875 204.224 221.666 191.202 215 187z"/>
<path style="fill:#8853e3; stroke:none;" d="M214.333 186.667L214.667 187.333L214.333 186.667z"/>
<path style="fill:#9287ae; stroke:none;" d="M222 186C222 189.739 220.999 195.417 223.179 198.682C229.775 208.563 234.56 191.289 233 186L232 186C232 189.243 230.107 205.932 224.028 196.64C222.053 193.622 223.384 189.299 222 186z"/>
<path style="fill:#8853e3; stroke:none;" d="M233 186L234 187L233 186z"/>
<path style="fill:#9287ae; stroke:none;" d="M237 186L237 201L238 201L238 195L248 201C244.048 192.232 250.047 186.109 237 186z"/>
<path style="fill:#8853e3; stroke:none;" d="M244 186L245 187L244 186z"/>
<path style="fill:#9287ae; stroke:none;" d="M257 186L257 201L266 201L266 200C259.023 199.773 257.017 194.609 265 194L265 193L258 193C258.785 188.077 261.275 187.154 266 187L257 186M268 186L273 195L268 201L273 195L275 195L278 201L279 201C277.174 193.821 276.593 192.87 280 186L275 192L273 192L268 186z"/>
<path style="fill:#8853e3; stroke:none;" d="M278 186L279 187L278 186z"/>
<path style="fill:#9287ae; stroke:none;" d="M282 186L282 201L284 201L284 195C296.339 194.854 292.311 186.214 282 186z"/>
<path style="fill:#8853e3; stroke:none;" d="M288.667 186.333L289.333 186.667L288.667 186.333z"/>
<path style="fill:#9287ae; stroke:none;" d="M296 186L296 201L305 201L305 200L297 200C297.709 195.556 299.606 194.335 304 194L304 193L297 193C297.785 188.077 300.275 187.154 305 187L296 186z"/>
<path style="fill:#8853e3; stroke:none;" d="M308 186L309 187L308 186z"/>
<path style="fill:#9287ae; stroke:none;" d="M308 201L310 201L310 195L319 201C317.527 197.116 319.429 191.706 317.588 188.514C315.944 185.663 310.149 185.184 308.603 188.318C306.947 191.677 308 197.328 308 201z"/>
<path style="fill:#8853e3; stroke:none;" d="M315 186L316 187L315 186M320 186L320 187L325 188L325 187L320 186z"/>
<path style="fill:#9287ae; stroke:none;" d="M321 186L321 187C327.376 188.936 326 195.437 326 201L327 201L327 187L332 187L321 186M335 186L335 201L336 201L335 186z"/>
<path style="fill:#8853e3; stroke:none;" d="M341 186L343 188L341 186z"/>
<path style="fill:#9287ae; stroke:none;" d="M342 186L342 187L346 187L342 186M351 186L351 201L361 201L361 200L353 200L353 194L360 194L360 193L353 193L353 187L361 187L351 186z"/>
<path style="fill:#8853e3; stroke:none;" d="M91 187L92 188L91 187z"/>
<path style="fill:#2d2346; stroke:none;" d="M101.104 187.721C94.8279 188.668 96.238 200.962 102.957 199.208C108.921 197.65 107.604 186.739 101.104 187.721z"/>
<path style="fill:#8853e3; stroke:none;" d="M111 187L111 195L112 195L111 187M132 194L132 193L129 193L129 188L133 188C127.796 186.295 127.232 192.417 132 194M152 187L152 188L157 188L152 187M161 187L161 188L168 188L161 187z"/>
<path style="fill:#9287ae; stroke:none;" d="M173 187C170.391 193.158 174.606 207.46 182 199C172.755 200.696 172.446 193.461 176 187L173 187M181 187L182 188L181 187z"/>
<path style="fill:#8853e3; stroke:none;" d="M182 187L183 188L182 187M210 187L211 188L210 187z"/>
<path style="fill:#2d2346; stroke:none;" d="M211.184 187.89C205.403 189.444 206.606 200.512 212.957 199.168C218.979 197.894 217.466 186.202 211.184 187.89z"/>
<path style="fill:#8853e3; stroke:none;" d="M243 194L243 193L239 193L239 188L243 188C237.471 186.188 237.332 193.054 243 194M259 187L259 188L266 188L259 187M284 187L284 188L288 188L284 187M298 187L298 188L305 188L298 187M310 187L310 188L315 188L310 187M327 187L327 188L332 188L327 187z"/>
<path style="fill:#9287ae; stroke:none;" d="M340 187C339.566 192.311 342.487 193.923 347 196C344.733 199.649 342.845 199.519 339 198C340.91 200.945 348.159 202.542 347.534 196.996C347.006 192.315 341.52 192.416 342 187L340 187M346.667 187.333L347.333 187.667L346.667 187.333z"/>
<path style="fill:#8853e3; stroke:none;" d="M353 187L353 188L361 188L353 187M83 188L84 189L83 188z"/>
<path style="fill:#2d2346; stroke:none;" d="M129 188L129 193L135 193L135 188L129 188z"/>
<path style="fill:#8853e3; stroke:none;" d="M172 188L173 189L172 188z"/>
<path style="fill:#2d2346; stroke:none;" d="M239 188L239 193L246 193C245.272 188.638 243.176 188.137 239 188z"/>
<path style="fill:#8853e3; stroke:none;" d="M245 188L246 189L245 188M258 188L258 193L259 193L258 188M269 188L270 189L269 188z"/>
<path style="fill:#2d2346; stroke:none;" d="M284 188C284.802 198.292 295.294 188.376 284 188z"/>
<path style="fill:#8853e3; stroke:none;" d="M292 188L293 189L292 188z"/>
<path style="fill:#2d2346; stroke:none;" d="M310 188L310 193L317 193C316.272 188.638 314.176 188.137 310 188z"/>
<path style="fill:#8853e3; stroke:none;" d="M316 188L317 189L316 188M339 188L340 189L339 188M347 188L348 189L347 188M107 189L108 190L107 189M208 189L209 190L208 189M247 189L248 190L247 189M278 189L279 190L278 189M290 189L291 190L290 189M318 189L319 190L318 189M135 190L136 191L135 190M207 190L208 191L207 190M218.333 190.667L218.667 191.333L218.333 190.667M317 190L318 191L317 190M339 190L340 191L339 190M108.333 191.667L108.667 192.333L108.333 191.667M247 191L248 192L247 191M271 191L272 192L271 191M274 191L275 192L274 191M318 191L319 192L318 191M341 191L342 192L341 191M87.6667 192.333L88.3333 192.667L87.6667 192.333M290 192L291 193L290 192M89 193L90 194L89 193M95.3333 193.667L95.6667 194.333L95.3333 193.667M205.333 193.667L205.667 194.333L205.333 193.667M217.333 193.667L217.667 194.333L217.333 193.667M275 193L276 194L275 193M284 193L285 194L284 193M289 193L290 194L289 193M310 193L310 194L314 194L310 193M342 193L343 194L342 193M161 194L161 195L168 195L161 194M187 194L187 195L195 195L187 194M259 194L259 195L265 195L259 194M298 194L298 195L304 195L298 194M343 194L344 195L343 194M347 194L348 195L347 194M353 194L353 195L360 195L353 194M108.333 195.667L108.667 196.333L108.333 195.667M128 195L128 201L129 201L128 195M218.333 195.667L218.667 196.333L218.333 195.667M233.333 195.667L233.667 196.333L233.333 195.667M238 195L238 201L239 201L238 195M258 195L258 199L259 199L258 195M207 196L208 197L207 196M245 196L246 197L245 196M275 196L276 197L275 196M316 196L317 197L316 196M106 197L107 198L106 197M113 197L114 198L113 197M133 197L134 198L133 197M171 197L172 198L171 197M216 197L217 198L216 197M223 197L224 198L223 197M243 197L244 198L243 197M272 197L273 198L272 197M120 198L121 199L120 198z"/>
<path style="fill:#9287ae; stroke:none;" d="M135 198L137 201L135 198z"/>
<path style="fill:#8853e3; stroke:none;" d="M136 198L137 199L136 198M172 198L173 199L172 198M174 198L175 199L174 198M230 198L231 199L230 198M232 198L233 199L232 198M246 198L247 199L246 198M269 198L270 199L269 198M276 198L277 199L276 198M99.6667 199.333L100.333 199.667L99.6667 199.333M112 199L113 200L112 199M115 199L116 200L115 199M118 199L119 200L118 199M182 199L183 200L182 199M210 199L211 200L210 199M214 199L215 200L214 199M217 199L218 200L217 199M245 199L246 200L245 199M297 199L298 200L297 199M316 199L317 200L316 199M345 199L346 200L345 199M353 199L354 200L353 199M106 200L107 201L106 200M168 200L169 201L168 200M173 200L174 201L173 200M216 200L217 201L216 200M231 200L232 201L231 200M279 200L280 201L279 200M339 200L340 201L339 200M347 200L348 201L347 200z"/>
</svg>
